# xmcd
#
# Track frame offsets:
#	150
#	17151
#	37722
#	52934
#	71072
#
# Disc length: 1200 seconds
#
# Revision: 0
# Processed by: cddbd v1.5.1PL2 Copyright (c) Steve Scherf et al.
# Submitted via: dBpowerAMP V4.0
#
DISCID=3504ae05
DTITLE=adfasdfdf - typadffae
DYEAR=2006
DGENRE=adf
TTITLE0=Remember The Name
TTITLE1=fsafsdf
TTITLE2=Tsfasfdsfsdafrack03
TTITLE3=adfadfdsf
TTITLE4=adfsadfasdf
EXTD=
EXTT0=
EXTT1=
EXTT2=
EXTT3=
EXTT4=
PLAYORDER=
